<svg xmlns="http://www.w3.org/2000/svg" viewBox="0 0 609.03 130.24"><defs><style>.cls-1,.cls-3{fill:#d8273a;}.cls-2{fill:#fff;}.cls-3{fill-rule:evenodd;}</style></defs><title>Asset 2</title><g id="Layer_2" data-name="Layer 2"><g id="Layer_1-2" data-name="Layer 1"><path class="cls-1" d="M171.48,86.41q-11,0-18.12-7.25a24.38,24.38,0,0,1-7.14-17.8,24.38,24.38,0,0,1,7.14-17.8q7.14-7.25,18.12-7.25a24.15,24.15,0,0,1,12.17,3.17A23,23,0,0,1,192.32,48l-5.59,3.24a15.6,15.6,0,0,0-6.18-6.38,17.73,17.73,0,0,0-9.07-2.38,18.24,18.24,0,0,0-13.63,5.38,18.46,18.46,0,0,0-5.28,13.46,18.23,18.23,0,0,0,18.91,18.77,17.73,17.73,0,0,0,9.07-2.38,15.64,15.64,0,0,0,6.18-6.32l5.59,3.18a22.61,22.61,0,0,1-8.63,8.59A24.11,24.11,0,0,1,171.48,86.41Z"/><path class="cls-1" d="M230.13,37.21h6.35v48.3h-6.35V63.77H206.67V85.51h-6.42V37.21h6.42V57.7h23.46Z"/><path class="cls-1" d="M279.33,85.51l-3.94-10.83H253.67l-3.94,10.83h-6.84l18-48.3h7.25l18,48.3ZM255.85,68.67H273.2l-8.67-23.84Z"/><path class="cls-1" d="M313.56,86.41q-11,0-18.12-7.25a24.38,24.38,0,0,1-7.14-17.8,24.38,24.38,0,0,1,7.14-17.8q7.14-7.25,18.12-7.25a24.15,24.15,0,0,1,12.17,3.17A23,23,0,0,1,334.4,48l-5.59,3.24a15.6,15.6,0,0,0-6.18-6.38,17.73,17.73,0,0,0-9.07-2.38,18.24,18.24,0,0,0-13.63,5.38,18.46,18.46,0,0,0-5.28,13.46,18.23,18.23,0,0,0,18.91,18.77,17.73,17.73,0,0,0,9.07-2.38,15.64,15.64,0,0,0,6.18-6.32l5.59,3.18a22.61,22.61,0,0,1-8.63,8.59A24.11,24.11,0,0,1,313.56,86.41Z"/><path class="cls-1" d="M377.45,85.51h-7.86l-20.84-23.2v23.2h-6.42V37.21h6.42V59.07L368.9,37.21h7.86L355.44,60.67Z"/><path class="cls-1" d="M419.93,79.09a25,25,0,0,1-42.75-17.73,25,25,0,1,1,50,0A24.2,24.2,0,0,1,419.93,79.09Zm-31.06-4.38a19,19,0,0,0,26.57,0,18.24,18.24,0,0,0,5.35-13.35,18.32,18.32,0,0,0-5.35-13.42,19,19,0,0,0-26.57,0,18.35,18.35,0,0,0-5.34,13.42A18.27,18.27,0,0,0,388.87,74.71Z"/><path class="cls-2" d="M461.75,79.44h20.84v6.07H455.33V37.21h6.42Z"/><path class="cls-2" d="M529.85,85.51l-3.94-10.83H504.19l-3.94,10.83h-6.83l18-48.3h7.24l18,48.3ZM506.37,68.68h17.35l-8.67-23.85Z"/><path class="cls-2" d="M557.37,85.51l-13.51-48.3h6.74L561.66,77l11.73-39.74h6.48L591.6,77l11-39.75H609l-13.49,48.3h-7.45l-11.5-38.69L565.1,85.51Z"/><path class="cls-1" d="M17.91,64.84c0-26.24,21.65-47.52,48.36-47.52a59,59,0,0,1,14.35,2.13A67.33,67.33,0,0,1,104.17,31q0-9.49-.07-19A66.14,66.14,0,0,0,85.4,2.89,77.58,77.58,0,0,0,65.88,0C29.5,0,0,29,0,64.74a64.44,64.44,0,0,0,30.94,54.88V97.21A46.84,46.84,0,0,1,17.91,64.84Z"/><path class="cls-3" d="M59.27,67.86,69.15,69l-.86-2.86a1.31,1.31,0,0,1,.44-1.36l9.91-8.09-2-1c-.9-.32-.65-.83-.33-2.06l1.51-5.53L72,49.34a.89.89,0,0,1-1-.62l-.74-2.6-4.55,5.13c-.65.82-2,.82-1.55-1.08L66.1,39.79l-2.6,1.36c-.74.41-1.46.47-1.88-.26L58,34.13,54.3,40.89c-.41.73-1.14.67-1.87.26l-2.61-1.36,2,10.38c.4,1.9-.91,1.9-1.56,1.08l-4.55-5.13-.74,2.6a.87.87,0,0,1-1,.62l-5.76-1.22,1.51,5.53c.33,1.23.58,1.74-.32,2.07l-2.06,1,9.91,8.09a1.32,1.32,0,0,1,.45,1.36L46.78,69l9.87-1.14Z"/><path class="cls-1" d="M103.94,107.27a90.36,90.36,0,0,1-37.67,5.09,86.87,86.87,0,0,1-17.22-3.16v18.14c2.26.54,4.59,1,7,1.42a114,114,0,0,0,48.05-2.53Z"/><path class="cls-1" d="M66.87,112.34V54.11H49.05v55.23a51,51,0,0,0,17.22,3Z"/><path class="cls-2" d="M54.8,128.54l-2.37-.45V74.94H54.8Z"/><path class="cls-2" d="M59.15,129.23l-2.38-.35V74.94h2.38Z"/><path class="cls-2" d="M63.49,129.74l-2.37-.25V74.94h2.37Z"/><rect class="cls-2" x="57.25" y="67.6" width="1.42" height="13.28" transform="translate(-16.28 132.2) rotate(-90)"/><rect class="cls-2" x="57.25" y="63.17" width="1.42" height="16.78" transform="translate(-13.61 129.53) rotate(-90)"/><rect class="cls-2" x="57.25" y="62.37" width="1.42" height="13.28" transform="translate(-11.05 126.97) rotate(-90)"/></g></g></svg>